<svg xmlns="http://www.w3.org/2000/svg" viewBox="0 0 344 72" width="344" role="img" aria-label="CoCandy">
<defs>
<linearGradient id="a" x1="0%" y1="0%" x2="100%" y2="0%">
<stop offset="0%" stop-color="#FF4500"><animate attributeName="stop-color" values="#FF4500;#FFCC00;#FF4500" dur="39s" repeatCount="indefinite"/></stop>
<stop offset="100%" stop-color="#FFCC00"><animate attributeName="stop-color" values="#FFCC00;#FF4500;#FFCC00" dur="39s" repeatCount="indefinite"/></stop>
</linearGradient>
</defs>
<g fill="url(#a)" shape-rendering="crispEdges">
<rect x="16" y="8" width="8" height="8"/>
<rect x="24" y="8" width="8" height="8"/>
<rect x="32" y="8" width="8" height="8"/>
<rect x="8" y="16" width="8" height="8"/>
<rect x="40" y="16" width="8" height="8"/>
<rect x="8" y="24" width="8" height="8"/>
<rect x="8" y="32" width="8" height="8"/>
<rect x="8" y="40" width="8" height="8"/>
<rect x="8" y="48" width="8" height="8"/>
<rect x="40" y="48" width="8" height="8"/>
<rect x="16" y="56" width="8" height="8"/>
<rect x="24" y="56" width="8" height="8"/>
<rect x="32" y="56" width="8" height="8"/>
<rect x="64" y="24" width="8" height="8"/>
<rect x="72" y="24" width="8" height="8"/>
<rect x="80" y="24" width="8" height="8"/>
<rect x="56" y="32" width="8" height="8"/>
<rect x="88" y="32" width="8" height="8"/>
<rect x="56" y="40" width="8" height="8"/>
<rect x="88" y="40" width="8" height="8"/>
<rect x="56" y="48" width="8" height="8"/>
<rect x="88" y="48" width="8" height="8"/>
<rect x="64" y="56" width="8" height="8"/>
<rect x="72" y="56" width="8" height="8"/>
<rect x="80" y="56" width="8" height="8"/>
<rect x="112" y="8" width="8" height="8"/>
<rect x="120" y="8" width="8" height="8"/>
<rect x="128" y="8" width="8" height="8"/>
<rect x="104" y="16" width="8" height="8"/>
<rect x="136" y="16" width="8" height="8"/>
<rect x="104" y="24" width="8" height="8"/>
<rect x="104" y="32" width="8" height="8"/>
<rect x="104" y="40" width="8" height="8"/>
<rect x="104" y="48" width="8" height="8"/>
<rect x="136" y="48" width="8" height="8"/>
<rect x="112" y="56" width="8" height="8"/>
<rect x="120" y="56" width="8" height="8"/>
<rect x="128" y="56" width="8" height="8"/>
<rect x="160" y="24" width="8" height="8"/>
<rect x="168" y="24" width="8" height="8"/>
<rect x="176" y="24" width="8" height="8"/>
<rect x="184" y="32" width="8" height="8"/>
<rect x="160" y="40" width="8" height="8"/>
<rect x="168" y="40" width="8" height="8"/>
<rect x="176" y="40" width="8" height="8"/>
<rect x="184" y="40" width="8" height="8"/>
<rect x="152" y="48" width="8" height="8"/>
<rect x="184" y="48" width="8" height="8"/>
<rect x="160" y="56" width="8" height="8"/>
<rect x="168" y="56" width="8" height="8"/>
<rect x="176" y="56" width="8" height="8"/>
<rect x="184" y="56" width="8" height="8"/>
<rect x="200" y="24" width="8" height="8"/>
<rect x="216" y="24" width="8" height="8"/>
<rect x="224" y="24" width="8" height="8"/>
<rect x="200" y="32" width="8" height="8"/>
<rect x="208" y="32" width="8" height="8"/>
<rect x="232" y="32" width="8" height="8"/>
<rect x="200" y="40" width="8" height="8"/>
<rect x="232" y="40" width="8" height="8"/>
<rect x="200" y="48" width="8" height="8"/>
<rect x="232" y="48" width="8" height="8"/>
<rect x="200" y="56" width="8" height="8"/>
<rect x="232" y="56" width="8" height="8"/>
<rect x="280" y="8" width="8" height="8"/>
<rect x="280" y="16" width="8" height="8"/>
<rect x="256" y="24" width="8" height="8"/>
<rect x="264" y="24" width="8" height="8"/>
<rect x="272" y="24" width="8" height="8"/>
<rect x="280" y="24" width="8" height="8"/>
<rect x="248" y="32" width="8" height="8"/>
<rect x="280" y="32" width="8" height="8"/>
<rect x="248" y="40" width="8" height="8"/>
<rect x="280" y="40" width="8" height="8"/>
<rect x="248" y="48" width="8" height="8"/>
<rect x="280" y="48" width="8" height="8"/>
<rect x="256" y="56" width="8" height="8"/>
<rect x="264" y="56" width="8" height="8"/>
<rect x="272" y="56" width="8" height="8"/>
<rect x="280" y="56" width="8" height="8"/>
<rect x="296" y="24" width="8" height="8"/>
<rect x="328" y="24" width="8" height="8"/>
<rect x="296" y="32" width="8" height="8"/>
<rect x="328" y="32" width="8" height="8"/>
<rect x="304" y="40" width="8" height="8"/>
<rect x="312" y="40" width="8" height="8"/>
<rect x="320" y="40" width="8" height="8"/>
<rect x="328" y="40" width="8" height="8"/>
<rect x="328" y="48" width="8" height="8"/>
<rect x="304" y="56" width="8" height="8"/>
<rect x="312" y="56" width="8" height="8"/>
<rect x="320" y="56" width="8" height="8"/>
</g>
</svg>
